<svg xmlns="http://www.w3.org/2000/svg">
    <symbol id="logo" viewBox="0 0 108 38">
        <path
            d="M68.5502 10.9321L62.6513 5.0318L52.749 14.9342L42.8466 5.0318L36.9463 10.9321L46.8487 20.8344L36.9463 30.7368L42.8466 36.6364L52.749 26.734L62.6513 36.6364L68.5502 30.7368L58.6485 20.8344L68.5502 10.9321Z" />
        <path
            d="M108 35.3649H68.4566L88.2283 5.81464L108 35.3649ZM84.0787 27.0211H92.3793L88.229 20.8186L84.0787 27.0211Z" />
        <path
            d="M16.7014 37.3753C7.49262 37.3753 0 29.8834 0 20.6739C0 11.4645 7.4919 3.9726 16.7014 3.9726C25.9108 3.9726 33.4027 11.4645 33.4027 20.6739C33.4027 29.8834 25.9101 37.3753 16.7014 37.3753ZM16.7014 12.3164C12.0934 12.3164 8.34384 16.066 8.34384 20.6739C8.34384 25.2819 12.0934 29.0315 16.7014 29.0315C21.3093 29.0315 25.0589 25.2819 25.0589 20.6739C25.0589 16.066 21.3093 12.3164 16.7014 12.3164Z" />
        <path d="M20.959 0H12.4431V19.5392H20.959V0Z" />
    </symbol>
    <symbol id="discord" viewBox="0 0 26 25">
        <path fill-rule="evenodd" clip-rule="evenodd"
            d="M5.10715 0C3.87579 0 2.69486 0.472107 1.82416 1.31246C0.953451 2.15282 0.464294 3.29259 0.464294 4.48103V20.1646C0.464294 21.3531 0.953451 22.4928 1.82416 23.3332C2.69486 24.1735 3.87579 24.6457 5.10715 24.6457H21.3572C22.5885 24.6457 23.7694 24.1735 24.6401 23.3332C25.5109 22.4928 26 21.3531 26 20.1646V4.48103C26 3.29259 25.5109 2.15282 24.6401 1.31246C23.7694 0.472107 22.5885 0 21.3572 0H5.10715ZM10.8585 5.83094C9.4134 5.83094 8.32001 6.06619 7.12215 6.63304C7.05382 6.66525 6.99659 6.71582 6.95733 6.77867C6.13554 8.10394 4.52679 11.7851 4.52679 16.1429C4.52679 16.2426 4.56626 16.3378 4.63822 16.4084C5.39037 17.159 6.07519 17.7101 6.80876 18.1C7.54813 18.491 8.31769 18.7083 9.22769 18.8136C9.3035 18.8224 9.38033 18.8098 9.44891 18.7774C9.51749 18.745 9.57489 18.6942 9.61421 18.631L10.0147 17.988C9.67749 17.8743 9.35315 17.7279 9.04662 17.5511C8.87803 17.4545 8.71455 17.3498 8.5568 17.2374L8.52546 17.215L8.51617 17.2083L8.51385 17.206H8.51153C8.39523 17.1096 8.32207 16.9735 8.30732 16.8262C8.29258 16.6788 8.33741 16.5317 8.43243 16.4156C8.52745 16.2994 8.66531 16.2232 8.81719 16.2029C8.96908 16.1825 9.12323 16.2197 9.24742 16.3065L9.24974 16.3076L9.26831 16.321L9.34724 16.377C9.41688 16.4241 9.52135 16.4913 9.65019 16.5652C9.95987 16.7466 10.2948 16.8843 10.6449 16.9741C11.4908 17.1802 12.3597 17.2855 13.2322 17.2878C14.105 17.2855 14.9742 17.1802 15.8205 16.9741C16.1702 16.8842 16.5048 16.7465 16.8141 16.5652C16.9459 16.4899 17.0737 16.4084 17.1972 16.321L17.2146 16.3076L17.2169 16.3065C17.3411 16.2223 17.494 16.1873 17.6441 16.2084C17.7943 16.2296 17.9303 16.3054 18.0244 16.4203C18.1185 16.5352 18.1635 16.6805 18.1502 16.8263C18.1369 16.9722 18.0663 17.1077 17.9528 17.2049L17.9505 17.206L17.9481 17.2083L17.9389 17.2161L17.9075 17.2385C17.7498 17.351 17.5863 17.4556 17.4177 17.5522C17.1111 17.7286 16.7868 17.8746 16.4497 17.988L16.8501 18.631C16.9302 18.7598 17.0822 18.8326 17.2366 18.8136C18.1466 18.7083 18.9162 18.491 19.6544 18.0989C20.3891 17.7101 21.0739 17.1579 21.8249 16.4084C21.8968 16.3374 21.9371 16.2422 21.9375 16.1429C21.9375 11.7862 20.3288 8.10394 19.507 6.78091C19.4677 6.7181 19.4104 6.66754 19.3422 6.63528C18.1443 6.06731 17.0509 5.83206 15.607 5.83206C15.5238 5.83193 15.4427 5.85707 15.3752 5.90393C15.3077 5.95078 15.2572 6.01696 15.2309 6.09308L14.9639 6.86269C14.4045 6.68736 13.8203 6.59666 13.2322 6.59383C12.644 6.59666 12.0598 6.68736 11.5004 6.86269L11.2346 6.09196C11.2084 6.01593 11.1582 5.94978 11.0909 5.90292C11.0235 5.85606 10.9426 5.83087 10.8597 5.83094H10.8585ZM10.4627 14.2329C11.1173 14.2329 11.6489 13.6335 11.6489 12.8953C11.6489 12.157 11.1173 11.5588 10.4627 11.5588C9.80688 11.5588 9.27528 12.157 9.27528 12.8953C9.27528 13.6346 9.80688 14.2329 10.4627 14.2329ZM16.0016 14.2329C16.6574 14.2329 17.189 13.6335 17.189 12.8953C17.189 12.157 16.6574 11.5588 16.0016 11.5588C15.347 11.5588 14.8154 12.157 14.8154 12.8953C14.8154 13.6346 15.347 14.2329 16.0016 14.2329Z" />
    </symbol>
    <symbol id="vk" viewBox="0 0 26 25">
        <path fill-rule="evenodd" clip-rule="evenodd"
            d="M4.72727 0.275879C3.47352 0.275879 2.27112 0.738081 1.38459 1.56081C0.498051 2.38353 0 3.49939 0 4.6629V20.0175C0 21.181 0.498051 22.2968 1.38459 23.1196C2.27112 23.9423 3.47352 24.4045 4.72727 24.4045H21.2727C22.5265 24.4045 23.7289 23.9423 24.6154 23.1196C25.502 22.2968 26 21.181 26 20.0175V4.6629C26 3.49939 25.502 2.38353 24.6154 1.56081C23.7289 0.738081 22.5265 0.275879 21.2727 0.275879H4.72727ZM6.98455 6.7577V7.15582C6.98455 8.54212 7.436 10.2048 8.28455 11.6251C9.02555 12.8677 10.0455 13.8844 11.2816 14.3911V6.7577H14.7195V10.4889C15.4925 10.2673 16.2772 9.9021 16.9012 9.41185C17.6635 8.81411 18.1575 8.05406 18.1575 7.15582V6.7566H21.5954V7.15582C21.5954 9.24733 20.3367 11.0263 18.6278 12.1987C19.5219 12.733 20.3202 13.3939 20.9938 14.1575C21.8341 15.1226 22.4545 16.2896 22.4545 17.5245V17.9238H19.0296L19.0178 17.5377C18.9871 16.6603 18.3052 15.8498 17.3006 15.2005C16.5157 14.6994 15.6421 14.3301 14.7195 14.1092V17.9238H13C10.0726 17.9238 7.70073 16.3839 6.07809 14.2957C4.45545 12.2119 3.54545 9.53688 3.54545 7.15582V6.7566L6.98455 6.7577Z" />
    </symbol>
</svg>